<mxfile host="app.diagrams.net" modified="2020-08-24T03:04:09.711Z" agent="5.0 (Windows NT 10.0; Win64; x64) AppleWebKit/537.36 (KHTML, like Gecko) Chrome/84.0.4147.125 Safari/537.36" etag="4wghFX4QFNjjrZ1CFjV7" version="13.6.2" type="github">
  <diagram name="Page-1" id="c7558073-3199-34d8-9f00-42111426c3f3">
    <mxGraphModel dx="868" dy="460" grid="0" gridSize="10" guides="1" tooltips="1" connect="1" arrows="1" fold="1" page="1" pageScale="1" pageWidth="826" pageHeight="1169" background="#ffffff" math="0" shadow="0">
      <root>
        <mxCell id="0" />
        <mxCell id="1" parent="0" />
        <mxCell id="2" value="&lt;p style=&quot;margin: 0px ; margin-top: 4px ; text-align: center ; text-decoration: underline&quot;&gt;&lt;span&gt;&lt;br&gt;&lt;/span&gt;&lt;/p&gt;&lt;p style=&quot;margin: 0px ; margin-top: 4px ; text-align: center ; text-decoration: underline&quot;&gt;&lt;span&gt;producer proxy&lt;/span&gt;&lt;br&gt;&lt;/p&gt;" style="verticalAlign=middle;align=center;overflow=fill;fontSize=12;fontFamily=Helvetica;html=1;rounded=1;fontStyle=1;strokeWidth=3;fillColor=#E6FFCC" parent="1" vertex="1">
          <mxGeometry x="200" y="290" width="100" height="49" as="geometry" />
        </mxCell>
        <mxCell id="4" value="producer sdk" style="whiteSpace=wrap;align=center;verticalAlign=middle;fontStyle=1;strokeWidth=3;fillColor=#FFFFCC" parent="1" vertex="1">
          <mxGeometry x="200" y="180" width="100" height="50" as="geometry" />
        </mxCell>
        <mxCell id="5" value="" style="shape=process;whiteSpace=wrap;align=center;verticalAlign=middle;size=0.0475;fontStyle=1;strokeWidth=3;fillColor=#FFCCCC" parent="1" vertex="1">
          <mxGeometry x="180" y="370" width="600" height="50" as="geometry" />
        </mxCell>
        <mxCell id="10" value="&lt;p style=&quot;margin: 0px ; margin-top: 4px ; text-align: center ; text-decoration: underline&quot;&gt;&lt;br&gt;&lt;/p&gt;&lt;p style=&quot;margin: 0px ; margin-top: 4px ; text-align: center ; text-decoration: underline&quot;&gt;Chronos Master&lt;/p&gt;&lt;p style=&quot;margin: 0px ; margin-top: 4px ; text-align: center ; text-decoration: underline&quot;&gt;Pull/Push&lt;/p&gt;&lt;p style=&quot;margin: 0px ; margin-top: 4px ; text-align: center ; text-decoration: underline&quot;&gt;&lt;br&gt;&lt;/p&gt;" style="verticalAlign=middle;align=center;overflow=fill;fontSize=12;fontFamily=Helvetica;html=1;rounded=1;fontStyle=1;strokeWidth=3;fillColor=#E6FFCC" parent="1" vertex="1">
          <mxGeometry x="160" y="500" width="180" height="60" as="geometry" />
        </mxCell>
        <mxCell id="13" value="&lt;b&gt;&lt;font style=&quot;font-size: 18px&quot;&gt;TIKV &lt;/font&gt;&lt;/b&gt;（RocksDB based）" style="shape=cylinder2;whiteSpace=wrap;html=1;boundedLbl=1;backgroundOutline=1;size=16;fontFamily=Helvetica;fontSize=12;fontColor=#000000;align=center;strokeColor=#000000;strokeWidth=3;fillColor=#FFFFCC;" parent="1" vertex="1">
          <mxGeometry x="217" y="630" width="484" height="46" as="geometry" />
        </mxCell>
        <mxCell id="1B5BZZ9y2ZXkXsjvevLo-97" value="chronos_inner_0" style="rounded=1;whiteSpace=wrap;html=1;" parent="1" vertex="1">
          <mxGeometry x="190" y="384.5" width="120" height="21" as="geometry" />
        </mxCell>
        <mxCell id="1B5BZZ9y2ZXkXsjvevLo-112" value="Zookeeper" style="ellipse;shape=cloud;whiteSpace=wrap;html=1;" parent="1" vertex="1">
          <mxGeometry x="480" y="470" width="120" height="100" as="geometry" />
        </mxCell>
        <mxCell id="1B5BZZ9y2ZXkXsjvevLo-115" value="" style="endArrow=classic;html=1;entryX=0;entryY=0.5;entryDx=0;entryDy=0;exitX=0.875;exitY=0.5;exitDx=0;exitDy=0;exitPerimeter=0;" parent="1" source="1B5BZZ9y2ZXkXsjvevLo-112" target="1B5BZZ9y2ZXkXsjvevLo-117" edge="1">
          <mxGeometry width="50" height="50" relative="1" as="geometry">
            <mxPoint x="507.9570000000001" y="523.04" as="sourcePoint" />
            <mxPoint x="440" y="460" as="targetPoint" />
          </mxGeometry>
        </mxCell>
        <mxCell id="1B5BZZ9y2ZXkXsjvevLo-116" value="" style="endArrow=classic;html=1;exitX=1;exitY=0.75;exitDx=0;exitDy=0;entryX=0.13;entryY=0.77;entryDx=0;entryDy=0;entryPerimeter=0;" parent="1" source="10" target="1B5BZZ9y2ZXkXsjvevLo-112" edge="1">
          <mxGeometry width="50" height="50" relative="1" as="geometry">
            <mxPoint x="390" y="510" as="sourcePoint" />
            <mxPoint x="440" y="460" as="targetPoint" />
          </mxGeometry>
        </mxCell>
        <mxCell id="1B5BZZ9y2ZXkXsjvevLo-117" value="&lt;p style=&quot;margin: 0px ; margin-top: 4px ; text-align: center ; text-decoration: underline&quot;&gt;&lt;br&gt;&lt;/p&gt;&lt;p style=&quot;margin: 0px ; margin-top: 4px ; text-align: center ; text-decoration: underline&quot;&gt;Chronos Standby&lt;/p&gt;&lt;p style=&quot;margin: 0px ; margin-top: 4px ; text-align: center ; text-decoration: underline&quot;&gt;Pull/Push&lt;/p&gt;&lt;p style=&quot;margin: 0px ; margin-top: 4px ; text-align: center ; text-decoration: underline&quot;&gt;&lt;br&gt;&lt;/p&gt;" style="verticalAlign=middle;align=center;overflow=fill;fontSize=12;fontFamily=Helvetica;html=1;rounded=1;fontStyle=1;strokeWidth=3;fillColor=#E6FFCC" parent="1" vertex="1">
          <mxGeometry x="670" y="490" width="110" height="60" as="geometry" />
        </mxCell>
        <mxCell id="1B5BZZ9y2ZXkXsjvevLo-118" value="seek_timestamp &lt; master_seekTs" style="text;spacingTop=-5;align=center" parent="1" vertex="1">
          <mxGeometry x="598" y="565" width="30" height="20" as="geometry" />
        </mxCell>
        <mxCell id="1B5BZZ9y2ZXkXsjvevLo-123" value="update  seek_timestamp" style="text;spacingTop=-5;align=center;rotation=0;" parent="1" vertex="1">
          <mxGeometry x="400" y="545" width="27" height="40" as="geometry" />
        </mxCell>
        <mxCell id="1B5BZZ9y2ZXkXsjvevLo-126" value="" style="endArrow=classic;html=1;entryX=1;entryY=0.5;entryDx=0;entryDy=0;" parent="1" target="10" edge="1">
          <mxGeometry width="50" height="50" relative="1" as="geometry">
            <mxPoint x="400" y="530" as="sourcePoint" />
            <mxPoint x="440" y="460" as="targetPoint" />
            <Array as="points" />
          </mxGeometry>
        </mxCell>
        <mxCell id="1B5BZZ9y2ZXkXsjvevLo-142" value="" style="endArrow=classic;html=1;exitX=0.5;exitY=1;exitDx=0;exitDy=0;entryX=0.5;entryY=0;entryDx=0;entryDy=0;" parent="1" source="52" target="2" edge="1">
          <mxGeometry width="50" height="50" relative="1" as="geometry">
            <mxPoint x="100" y="300" as="sourcePoint" />
            <mxPoint x="150" y="250" as="targetPoint" />
          </mxGeometry>
        </mxCell>
        <mxCell id="1B5BZZ9y2ZXkXsjvevLo-143" value="" style="endArrow=classic;html=1;exitX=0.5;exitY=1;exitDx=0;exitDy=0;" parent="1" source="2" target="1B5BZZ9y2ZXkXsjvevLo-97" edge="1">
          <mxGeometry width="50" height="50" relative="1" as="geometry">
            <mxPoint x="100" y="340" as="sourcePoint" />
            <mxPoint x="150" y="290" as="targetPoint" />
          </mxGeometry>
        </mxCell>
        <mxCell id="52" value="send_delay_message" style="text;spacingTop=-5;align=center" parent="1" vertex="1">
          <mxGeometry x="235" y="250" width="30" height="20" as="geometry" />
        </mxCell>
        <mxCell id="1B5BZZ9y2ZXkXsjvevLo-153" value="" style="endArrow=classic;html=1;exitX=0.5;exitY=1;exitDx=0;exitDy=0;entryX=0.5;entryY=0;entryDx=0;entryDy=0;" parent="1" source="4" target="52" edge="1">
          <mxGeometry width="50" height="50" relative="1" as="geometry">
            <mxPoint x="250" y="230" as="sourcePoint" />
            <mxPoint x="250" y="290" as="targetPoint" />
          </mxGeometry>
        </mxCell>
        <mxCell id="1B5BZZ9y2ZXkXsjvevLo-154" value="real_topic" style="rounded=1;whiteSpace=wrap;html=1;" parent="1" vertex="1">
          <mxGeometry x="386" y="383.5" width="120" height="21" as="geometry" />
        </mxCell>
        <mxCell id="1B5BZZ9y2ZXkXsjvevLo-156" value="" style="edgeStyle=elbowEdgeStyle;elbow=horizontal;endArrow=classic;html=1;" parent="1" source="5" edge="1">
          <mxGeometry width="50" height="50" relative="1" as="geometry">
            <mxPoint x="350" y="450" as="sourcePoint" />
            <mxPoint x="250" y="500" as="targetPoint" />
            <Array as="points">
              <mxPoint x="250" y="466" />
            </Array>
          </mxGeometry>
        </mxCell>
        <mxCell id="1B5BZZ9y2ZXkXsjvevLo-162" value="" style="endArrow=none;html=1;" parent="1" edge="1">
          <mxGeometry width="50" height="50" relative="1" as="geometry">
            <mxPoint x="450" y="530" as="sourcePoint" />
            <mxPoint x="490" y="530" as="targetPoint" />
          </mxGeometry>
        </mxCell>
        <mxCell id="1B5BZZ9y2ZXkXsjvevLo-122" value="election" style="text;spacingTop=-5;align=center" parent="1" vertex="1">
          <mxGeometry x="410" y="520" width="30" height="20" as="geometry" />
        </mxCell>
        <mxCell id="1B5BZZ9y2ZXkXsjvevLo-175" value="" style="edgeStyle=elbowEdgeStyle;elbow=vertical;endArrow=classic;html=1;exitX=0.822;exitY=0.017;exitDx=0;exitDy=0;exitPerimeter=0;strokeColor=#FF6666;" parent="1" source="10" target="1B5BZZ9y2ZXkXsjvevLo-154" edge="1">
          <mxGeometry width="50" height="50" relative="1" as="geometry">
            <mxPoint x="310" y="490" as="sourcePoint" />
            <mxPoint x="400" y="710" as="targetPoint" />
            <Array as="points">
              <mxPoint x="430" y="480" />
              <mxPoint x="390" y="490" />
            </Array>
          </mxGeometry>
        </mxCell>
        <mxCell id="1B5BZZ9y2ZXkXsjvevLo-176" value="" style="edgeStyle=elbowEdgeStyle;elbow=vertical;endArrow=classic;html=1;strokeColor=#FF6666;entryX=0.789;entryY=1.033;entryDx=0;entryDy=0;entryPerimeter=0;" parent="1" target="10" edge="1">
          <mxGeometry width="50" height="50" relative="1" as="geometry">
            <mxPoint x="459" y="626" as="sourcePoint" />
            <mxPoint x="261" y="560" as="targetPoint" />
            <Array as="points">
              <mxPoint x="576" y="598" />
              <mxPoint x="570" y="598" />
              <mxPoint x="447" y="590" />
              <mxPoint x="290" y="590" />
            </Array>
          </mxGeometry>
        </mxCell>
        <mxCell id="1B5BZZ9y2ZXkXsjvevLo-177" value="" style="edgeStyle=elbowEdgeStyle;elbow=vertical;endArrow=classic;html=1;strokeColor=#000000;entryX=0.289;entryY=0.025;entryDx=0;entryDy=0;entryPerimeter=0;exitX=0.5;exitY=1;exitDx=0;exitDy=0;" parent="1" source="10" target="13" edge="1">
          <mxGeometry width="50" height="50" relative="1" as="geometry">
            <mxPoint x="400" y="400" as="sourcePoint" />
            <mxPoint x="350" y="450" as="targetPoint" />
            <Array as="points">
              <mxPoint x="277" y="608" />
              <mxPoint x="210" y="590" />
            </Array>
          </mxGeometry>
        </mxCell>
        <mxCell id="1B5BZZ9y2ZXkXsjvevLo-181" value="" style="edgeStyle=elbowEdgeStyle;elbow=vertical;endArrow=classic;html=1;strokeColor=#33FF33;entryX=0.709;entryY=-0.022;entryDx=0;entryDy=0;entryPerimeter=0;" parent="1" target="13" edge="1">
          <mxGeometry width="50" height="50" relative="1" as="geometry">
            <mxPoint x="725" y="553" as="sourcePoint" />
            <mxPoint x="680" y="630" as="targetPoint" />
            <Array as="points">
              <mxPoint x="725" y="604" />
              <mxPoint x="680" y="610" />
            </Array>
          </mxGeometry>
        </mxCell>
        <mxCell id="1B5BZZ9y2ZXkXsjvevLo-185" value="&lt;b&gt;&lt;font style=&quot;font-size: 18px&quot;&gt;MQ&lt;/font&gt;&lt;/b&gt;" style="text;html=1;strokeColor=none;fillColor=none;align=center;verticalAlign=middle;whiteSpace=wrap;rounded=0;" parent="1" vertex="1">
          <mxGeometry x="543" y="384.5" width="40" height="20" as="geometry" />
        </mxCell>
        <mxCell id="1B5BZZ9y2ZXkXsjvevLo-186" value="" style="line;strokeWidth=2;html=1;strokeColor=#80FF00;" parent="1" vertex="1">
          <mxGeometry x="250" y="442" width="475" height="10" as="geometry" />
        </mxCell>
        <mxCell id="1B5BZZ9y2ZXkXsjvevLo-187" value="" style="endArrow=classic;html=1;strokeColor=#00FF00;" parent="1" target="1B5BZZ9y2ZXkXsjvevLo-117" edge="1">
          <mxGeometry width="50" height="50" relative="1" as="geometry">
            <mxPoint x="724" y="447" as="sourcePoint" />
            <mxPoint x="698" y="489" as="targetPoint" />
            <Array as="points" />
          </mxGeometry>
        </mxCell>
        <mxCell id="1B5BZZ9y2ZXkXsjvevLo-198" value="chronos_inner_N" style="rounded=1;whiteSpace=wrap;html=1;" parent="1" vertex="1">
          <mxGeometry x="600" y="383.5" width="120" height="21" as="geometry" />
        </mxCell>
      </root>
    </mxGraphModel>
  </diagram>
</mxfile>
